<?xml version="1.0" standalone="no"?>
<!DOCTYPE svg PUBLIC "-//W3C//DTD SVG 20010904//EN"
 "http://www.w3.org/TR/2001/REC-SVG-20010904/DTD/svg10.dtd">
<svg version="1.0" xmlns="http://www.w3.org/2000/svg"
 width="512.000000pt" height="512.000000pt" viewBox="0 0 512.000000 512.000000"
 preserveAspectRatio="xMidYMid meet">
<metadata>
Created by potrace 1.11, written by Peter Selinger 2001-2013
</metadata>
<g transform="translate(0.000000,512.000000) scale(0.100000,-0.100000)"
fill="#000000" stroke="none">
<path d="M1369 4863 c523 -907 669 -1158 676 -1156 5 1 158 262 342 580 184
318 367 635 408 706 l74 127 -824 0 -824 0 148 -257z"/>
<path d="M3290 5114 c0 -3 183 -323 407 -711 321 -556 409 -701 418 -691 7 7
184 312 395 678 210 366 391 680 402 698 l20 32 -821 0 c-452 0 -821 -3 -821
-6z"/>
<path d="M2670 4297 c-223 -385 -406 -707 -408 -714 -3 -11 145 -13 818 -13
452 0 819 3 817 8 -3 4 -188 324 -412 712 -224 388 -408 706 -408 707 -1 0
-184 -314 -407 -700z"/>
<path d="M1003 4978 c-7 -9 -686 -1183 -810 -1400 -2 -5 366 -8 817 -8 767 0
822 1 816 17 -8 20 -795 1385 -806 1396 -4 4 -11 2 -17 -5z"/>
<path d="M2260 3325 c0 -6 784 -1367 805 -1398 11 -15 66 75 419 686 223 387
406 707 406 711 0 3 -367 6 -815 6 -448 0 -815 -2 -815 -5z"/>
<path d="M1636 2506 c-223 -387 -406 -707 -406 -710 0 -3 367 -6 815 -6 448 0
815 2 815 5 0 6 -784 1368 -805 1398 -11 15 -66 -75 -419 -687z"/>
<path d="M1247 1502 c539 -937 799 -1379 805 -1369 4 7 187 325 407 707 221
381 401 697 401 702 0 4 -369 8 -820 8 l-820 0 27 -48z"/>
<path d="M3290 1543 c0 -13 808 -1407 817 -1410 4 -1 179 295 388 658 209 364
393 683 408 710 l29 49 -821 0 c-452 0 -821 -3 -821 -7z"/>
<path d="M1004 1408 c-5 -7 -189 -326 -410 -708 l-402 -695 816 -3 c448 -1
817 0 820 2 4 4 -791 1390 -808 1409 -4 5 -12 3 -16 -5z"/>
<path d="M2855 1044 c-121 -208 -305 -527 -410 -709 l-191 -330 414 -3 c227
-1 597 -1 821 0 l408 3 -396 686 c-218 377 -404 697 -412 709 -15 23 -22 12
-234 -356z"/>
</g>
</svg>
